<?xml version="1.0" encoding="UTF-8"?>
<svg id="Layer_4" data-name="Layer 4" xmlns="http://www.w3.org/2000/svg" viewBox="286 377 580 580">
  <defs>
    <style>
      .cls-1 {
        fill: #c1fc30;
      }
    </style>
  </defs>
  <path class="cls-1" d="M726.79,765.37v-180.09c0-16.57-13.43-30-30-30h-133.66c-20.04,0-36.29-16.25-36.29-36.29v-134.27h268.02c29.09,0,52.68,23.58,52.68,52.68v459.69c0,29.09-23.58,52.68-52.68,52.68h-273.34v-118.1c0-20.04,16.25-36.29,36.29-36.29h138.99c16.57,0,30-13.43,30-30Z"/>
  <path class="cls-1" d="M507.94,828.38c0-27.88,22.6-50.49,50.49-50.49h122.51c16.59,0,30.05-13.43,30.05-30v-147.84c0-16.57-13.45-30-30.05-30h-118.34c-27.1,0-49.07-21.97-49.07-49.07v-136.26h-5.59c-112.37,0-203.47,91.1-203.47,203.47v158.1c0,112.37,91.1,203.47,203.47,203.47h0v-121.38Z"/>
</svg>